<svg xmlns="http://www.w3.org/2000/svg" viewBox="0 0 489.39 133.17"><defs><style>.cls-1{fill:#d11c1c;}</style></defs><g id="レイヤー_2" data-name="レイヤー 2"><g id="レイヤー_1-2" data-name="レイヤー 1"><path class="cls-1" d="M69.7,132a58.18,58.18,0,1,1,45.51-68.54A58.24,58.24,0,0,1,69.7,132Zm-22-109A53,53,0,1,0,110.13,64.5,53,53,0,0,0,47.69,23Z"/><path class="cls-1" d="M23.27,43.22c8.41-1.69,15.63,1.43,16.87,7.6,2.57,12.72-13.91,20.53-26.21,23.73,1.92,9,8.66,16.48,21.1,14,14.52-2.93,18-11.9,20.66-19.76a2,2,0,0,1,1.64-1.45c.87-.18,2.08.19,2.26,1.07.14.69-.62,2.57-1,3.66-2.89,8.22-9.31,19.71-25.14,22.9C18.32,98,5.14,91.8,2.28,77.61-.75,62.64,8.43,46.22,23.27,43.22Zm5.27,10.35c-.79-3.92-3.43-6.34-6.71-5.68-6.33,1.28-9.64,12.44-8.55,22.92C22.21,68.9,30.88,65.12,28.54,53.57Z"/><path class="cls-1" d="M62.76,124.44c-7.83-3.48-11.91-10.21-9.35-16,5.27-11.86,23.23-8.69,35.11-4.17C92.15,95.87,91,85.85,79.4,80.7c-13.53-6-21.6-.75-28.28,4.15a2,2,0,0,1-2.18.23c-.81-.36-1.59-1.36-1.22-2.18.28-.64,2-1.74,2.9-2.43,7.11-5,19-10.67,33.75-4.12,14.15,6.29,21.3,19,15.42,32.21C93.59,122.52,76.6,130.59,62.76,124.44ZM64.45,113c-1.62,3.65-.86,7.16,2.19,8.51,5.9,2.63,15.06-4.55,20.24-13.73C78.49,104.12,69.24,102.19,64.45,113Z"/><path class="cls-1" d="M100,48.71c-.44,8.56-5.26,14.78-11.54,14.46-13-.66-16.44-18.56-16.49-31.28-9.18-.35-18.12,4.32-18.77,17-.76,14.79,7.06,20.43,14,24.91a2,2,0,0,1,1,1.95c-.05.89-.71,2-1.6,1.92-.7,0-2.34-1.23-3.31-1.84-7.25-4.83-16.78-13.9-16-30,.79-15.46,10.06-26.69,24.52-25.95C87.17,20.63,100.8,33.59,100,48.71ZM88.7,51.25c4,.21,7-1.76,7.16-5.09.33-6.45-9.66-12.42-20.08-14C75.41,41.32,76.94,50.65,88.7,51.25Z"/><path class="cls-1" d="M238.41,73.52a11.4,11.4,0,0,1,3.61.66A11.62,11.62,0,0,1,248,72.4c5.3,0,7.64,4,7.64,9.35,0,8-7.22,13.81-15.71,13.81-.85,0-1.7-.23-1.7-1.12,0-.44,6.79-3.11,6.79-10,0-2.89-1.06-7.34-4-8.23-4.88,0-7.85,4.67-7.85,10.68,0,10,7.43,15.14,15.92,15.14a21.8,21.8,0,0,0,11.25-2.89l.85-.45c.21,0,.42-.22.63-.22.43,0,.64,1.11.64,1.78,0,9.13-11.89,13.36-18.89,13.36-11.68,0-19.74-9.13-19.74-21.37C223.77,83.09,230.13,73.52,238.41,73.52Z"/><path class="cls-1" d="M230.22,35.42a42.69,42.69,0,0,1-3.33,3.82,3.75,3.75,0,0,1,.36.24,2,2,0,0,1,.67,1.57,54.8,54.8,0,0,1,0,8.21,1.24,1.24,0,0,1-1.22,1.24c-.82,0-1.25-1-1.25-1.92a12.3,12.3,0,0,1,.35-1.81,27.25,27.25,0,0,0,.19-5.56,1.81,1.81,0,0,0-.29-.81,36,36,0,0,1-9.08,6.37c-1,.48-1.54-.54-.68-1.09,5-3.14,10.32-7.82,12.06-11,.48-.89.43-1.27-.46-2.27-.49-.55-.3-.84.35-.84,1.41,0,3.19,1.32,3.19,2.24A3.13,3.13,0,0,1,230.22,35.42Z"/><path class="cls-1" d="M245.59,40.84c1.43,0,7.47-.63,9.34-.87,2.3-.3,2.93-.57,4-.57s2.82.62,2.82,1.79c0,.4-.27.76-1.11.76-1,0-1.52-.14-3.55-.14s-7.83.68-9.1.9a23.7,23.7,0,0,1-3,.46c-1.16,0-2.49-1.68-2.49-3,0-.46.32-.65.76-.38A4.43,4.43,0,0,0,245.59,40.84Z"/><path class="cls-1" d="M279.07,33.17c0,.62-.43,1.33-.52,2.95s-.13,3.61-.13,5.28c0,2.42.22,6.78.22,8s-.41,1.76-1.09,1.76c-.84,0-1.38-.81-1.38-2.22,0-1,.52-3.47.52-8.8,0-2.57,0-4-.11-5.53-.08-.89-.25-1-.73-1.24-.79-.38-1.11-.46-1.11-.81s1.13-.87,1.7-.87C277.42,31.71,279.07,32.36,279.07,33.17Zm1.49,6.34c2.57,0,5.42,1.3,5.42,3,0,.65-.3,1.19-1.09,1.19s-1.43-1.49-4.66-3.17C279.61,40.21,279.69,39.51,280.56,39.51ZM286,35.93a.9.9,0,0,1-.93,1c-.62,0-.81-.46-1.43-1.19A22.78,22.78,0,0,0,282,34.06a.41.41,0,0,1,.33-.73C284.08,33.47,286,34.66,286,35.93Zm2.3-2.54a.87.87,0,0,1-.9,1c-.4,0-.67-.22-1.19-.79a13.51,13.51,0,0,0-2-1.68c-.44-.32-.25-.78.27-.78C286.19,31.11,288.28,32,288.28,33.39Z"/><path class="cls-1" d="M303.5,42.11c0,.68-.37,1.11-1,1.11s-.92-.33-1.25-1.06-.84-1.81-1.16-2.46.11-1.17.81-.79C302,39.48,303.5,40.75,303.5,42.11Zm7.67-5.31c1,0,2.33,1.14,2.33,2,0,.49-.35.81-.81,1.76a18.3,18.3,0,0,1-11.27,9.67c-.73.19-1.06-.73-.33-1.08,4.53-2.12,8.26-5.39,9.94-9.86.19-.52.14-.71-.21-1s-.76-.49-.76-.81S310.63,36.8,311.17,36.8Zm-3.49,3.6a1,1,0,0,1-1,1.14c-.54,0-.92-.33-1.22-1.06s-.81-1.73-1.16-2.38.13-1.16.81-.81C306.19,37.86,307.68,39.08,307.68,40.4Z"/><path class="cls-1" d="M333.52,33.09c0,.62-.43,1.33-.51,2.95s-.14,3.6-.14,5.28c0,2.41.22,6.77.22,8s-.41,1.76-1.09,1.76c-.84,0-1.38-.81-1.38-2.22,0-1,.52-3.47.52-8.8,0-2.58,0-4-.11-5.53-.08-.89-.25-1-.73-1.24-.79-.38-1.11-.46-1.11-.82s1.13-.86,1.7-.86C331.87,31.63,333.52,32.28,333.52,33.09ZM335,39.43c2.57,0,5.42,1.3,5.42,3,0,.65-.3,1.2-1.09,1.2s-1.43-1.49-4.66-3.17C334.06,40.13,334.14,39.43,335,39.43Z"/><path class="cls-1" d="M355.22,36.69c1.6,0,3.14-.16,4.55-.3a29.36,29.36,0,0,0,0-3.22c-.09-.65-.36-.84-.93-1.11s-.89-.38-.89-.7.73-.65,1.49-.65c.92,0,2.57.43,2.63,1.3a11.25,11.25,0,0,1-.27,2c-.06.4-.17,1.3-.25,2.19,1.06-.11,2.25-.22,3-.32,1-.14,1.24-.54,1.89-.54,1.19,0,2.79,1.46,2.79,2.16s-.78.73-1.19,1.71c-1.87,4.55-5,9.18-11.51,11.48-.84.3-1.27-.62-.46-1A18.4,18.4,0,0,0,366,38c.19-.67.1-.76-.63-.7s-2.76.27-4.55.49c-1.27.16-3.06.59-3.6.59a3.62,3.62,0,0,1-1.57-.59c.05.24.11.54.16.92a28.84,28.84,0,0,1,.25,5c-.06.57-.3,1-.82,1.06S354,44,354,43.06a23.29,23.29,0,0,0-.06-4.12c-.24-1.25-.81-1.65-1.62-2.65-.46-.57-.22-.95.51-.79a5.22,5.22,0,0,1,2.33,1.08Z"/><path class="cls-1" d="M388.32,45.49c.76-.1,1.46-.19,2-.24,2-.19,3-.27,3.57-.27,1.19,0,2.36.65,2.36,1.38a.77.77,0,0,1-.84.84,41.8,41.8,0,0,0-4.77-.32,32,32,0,0,0-7.12,1,8.45,8.45,0,0,1-2.14.43,2.17,2.17,0,0,1-1.95-1.59c-.19-.6.11-.9.68-.71a6.49,6.49,0,0,0,1.68.3c.48,0,2.7-.3,4.9-.6a.86.86,0,0,1,0-.21,15.63,15.63,0,0,0,.36-2.66,2.3,2.3,0,0,0-.63-1.57,24.26,24.26,0,0,1-2.46.19,2.37,2.37,0,0,1-2.38-1.49c-.14-.51.19-.81.65-.65a5.6,5.6,0,0,0,2.05.44,28.66,28.66,0,0,0,4.42-.57c1.19-.27,2.14-.76,2.82-.79,1,0,1.86.38,1.86,1s-.29.73-1,.92-2.33.46-4.15.73a2.88,2.88,0,0,1,.6.46,1.41,1.41,0,0,1,.35,1.35,12.57,12.57,0,0,1-.81,2.58Z"/><path class="cls-1" d="M409.37,35.91c1.3,0,6.37-.65,8.67-1,1.25-.16,1.41-.51,2-.51,1.2,0,2.9,1.46,2.9,2.22s-.84.81-1.41,2.06a20.51,20.51,0,0,1-13.11,11.48c-.89.27-1.3-.7-.4-1.11,6.23-2.87,10.45-7.58,11.78-12,.22-.73.11-.76-.62-.71a73,73,0,0,0-7.21,1.3,13.32,13.32,0,0,1-2.81.68,3.55,3.55,0,0,1-2.69-2.57c-.16-.68.25-.92.84-.6A4.14,4.14,0,0,0,409.37,35.91Zm16.06-1.66a.9.9,0,0,1-.92,1c-.62,0-.81-.46-1.43-1.19a22.68,22.68,0,0,0-1.63-1.62.42.42,0,0,1,.33-.74C423.54,31.79,425.43,33,425.43,34.25Zm2.31-2.54a.87.87,0,0,1-.9.95c-.4,0-.68-.22-1.19-.79a14,14,0,0,0-2-1.68c-.44-.32-.25-.78.27-.78C425.65,29.43,427.74,30.33,427.74,31.71Z"/><path class="cls-1" d="M161.71,65.53s-13.29-3.31-15.41-13.41c-2.93-13.95,10.32-28.61,29.36-32.61,6.8-1.42,22.44-1.28,26.17,4.62.59,2.85-7.12,9.22-10,9.83-2.28-.71-7-4.48-20.06-1.74-9.86,2.07-23.4,10.25-21.35,20.07,1.11,5.27,10.25,10.78,15.08,11a63.73,63.73,0,0,1,17.73-6.84c2.89-.61,12.64-2.35,13.44,1.49s-9.07,6.66-12.13,7.3a51.64,51.64,0,0,1-17.73.89c-7.71,4.74-12.9,13-11.29,20.65,3.34,15.94,23.35,15.75,38.82,12.51,9.52-2,26.4-8.66,32.54-13.21.34-.07.71,0,.8.42.27,1.28-2,6.37-8.69,18.62-3.86,3.63-12,7-21.55,9-12.91,2.71-27.76,3-36.8-1.2-7.31-3.52-11.74-9.42-13.17-16.25C145.12,84.61,150.89,74,161.71,65.53Zm22.11-2.86c4.42-.92,6.45-2.24,6.33-2.81-.21-1-3.58-1-8.34,0a60.35,60.35,0,0,0-10.95,3.63C175.26,64.17,178.86,63.56,183.82,62.67Z"/><path class="cls-1" d="M280,73.51a11.2,11.2,0,0,1,3.61.67,11.52,11.52,0,0,1,5.94-1.78c5.31,0,7.64,4,7.64,9.35,0,8-7.21,13.8-15.7,13.8-.85,0-1.7-.22-1.7-1.11,0-.45,6.79-3.12,6.79-10,0-2.9-1.06-7.35-4-8.24-4.89,0-7.86,4.68-7.86,10.69,0,10,7.43,15.13,15.92,15.13a21.68,21.68,0,0,0,11.25-2.89l.85-.44c.22,0,.43-.23.64-.23.42,0,.64,1.12.64,1.78,0,9.13-11.89,13.36-18.9,13.36-11.67,0-19.74-9.13-19.74-21.37C265.31,83.08,271.68,73.51,280,73.51Z"/><path class="cls-1" d="M324.66,96.45c4.88,0,7.43,4.23,7.43,8.68,0,4.9-3,8-7.85,8-4.68,0-7.22-3.12-7.22-8.24C317,100.23,319.56,96.45,324.66,96.45Z"/><path class="cls-1" d="M364.42,89.75,351.9,112.47c-.8,1.28-1.59,2-2.39,2s-1.59-.76-2.38-2.55C343.75,103.79,333,73.15,333,71.36c.2-2,5.17-3.32,8.35-3.32,1.59,0,3,.26,3.18,1,11.14,28.6,11.53,29.62,11.53,29.37,2.79-7.41,5.17-12.77,6.56-13.54-1.19-3.06-2.58-7.4-3.77-10.21a9.17,9.17,0,0,1-.4-3.06c.2-3.32,3.78-4.09,7-4.09h2.18c1.59,0,2.79.26,3.18,1.53l10.74,30.39c1.39-3.83,7-28.86,9.94-31.41a3.29,3.29,0,0,1,2.38-1c2.39,0,3.18,1.28,3.18,3.06a13,13,0,0,1-1.19,4.6S384.3,104,377.34,113a2.19,2.19,0,0,1-1.78,1c-.8,0-1.59-1-2.39-2.55C371,107.11,365,91.28,364.42,89.75Z"/><path class="cls-1" d="M413.47,73.52a11.16,11.16,0,0,1,3.61.67A11.52,11.52,0,0,1,423,72.41c5.31,0,7.64,4,7.64,9.34,0,8-7.21,13.81-15.7,13.81-.85,0-1.7-.23-1.7-1.11,0-.45,6.79-3.12,6.79-10,0-2.9-1.06-7.35-4-8.24-4.88,0-7.86,4.68-7.86,10.69,0,10,7.43,15.13,15.92,15.13a21.66,21.66,0,0,0,11.25-2.89l.85-.45c.22,0,.43-.22.64-.22.43,0,.64,1.12.64,1.78,0,9.13-11.89,13.36-18.9,13.36-11.67,0-19.74-9.13-19.74-21.37C398.82,83.09,405.19,73.52,413.47,73.52Z"/><path class="cls-1" d="M452,0c4,0,6.79,4.18,6.79,8.36C456.91,42,454.37,55.41,452.88,91c6.58-10.56,14.86-20.45,24.84-20.45,8.7,0,11.67,6.37,11.67,15.39,0,14.73-12.52,25.07-26.11,25.07-7.21,0-6.37-9-9.55-15.4a43.84,43.84,0,0,0-3.82,13.86c0,.66-1.27,1.54-1.91,1.54-1.49,0-1.49-3.52-1.49-4.18v-3.52c0-5.28-.21-10.55-.21-15.83-1.27-25.07-3-50.14-3-75.43C443.33,5.5,444.6,0,452,0ZM463.5,98.07a13.82,13.82,0,0,0,13.58-14.29c0-3.52-1.27-6.82-4.88-6.82-7.43,0-13.59,10.12-17.83,17.59A13.34,13.34,0,0,0,463.5,98.07Z"/></g></g></svg>