<svg xmlns="http://www.w3.org/2000/svg" viewBox="0 0 343.5 315.48"><defs><style>.cls-1{fill:#d11c1c;}</style></defs><g id="レイヤー_2" data-name="レイヤー 2"><g id="レイヤー_1-2" data-name="レイヤー 1"><path class="cls-1" d="M116.51,266.53c0-.67-.21-1.78-.64-1.78-.21,0-.42.22-.64.22l-.84.45a21.81,21.81,0,0,1-11.26,2.89c-8.49,0-15.92-5.12-15.92-15.14,0-6,3-10.68,7.86-10.68,3,.89,4,5.34,4,8.23,0,6.91-6.79,9.58-6.79,10,0,.89.85,1.12,1.7,1.12,8.49,0,15.71-5.79,15.71-13.81,0-5.34-2.34-9.35-7.65-9.35a11.62,11.62,0,0,0-5.94,1.78,11.4,11.4,0,0,0-3.61-.66C85.6,239.82,80,246.5,78.39,254c-7.44,4.37-21.56,9.76-29.95,11.52C33,268.79,13,269,9.62,253,8,245.35,13.2,237.13,20.9,232.39a51.68,51.68,0,0,0,17.74-.89c3.06-.64,12.91-3.6,12.13-7.3s-10.55-2.1-13.44-1.49a63.73,63.73,0,0,0-17.73,6.84c-4.83-.18-14-5.69-15.08-11-2.06-9.82,11.49-18,21.35-20.07,13.09-2.74,17.78,1,20.06,1.74,2.89-.61,10.6-7,10-9.83-3.72-5.9-19.36-6-26.16-4.62-19,4-32.29,18.66-29.37,32.61,2.12,10.1,15.41,13.41,15.41,13.41C5,240.33-.77,250.91,1.57,262.9c1.43,6.83,5.86,12.73,13.17,16.25,9,4.2,23.88,3.91,36.8,1.2,9.52-2,17.69-5.34,21.54-9,2.09-3.83,3.74-7,5-9.49,1.34,10.5,8.93,18,19.51,18C104.62,279.89,116.51,275.66,116.51,266.53Zm-80.6-40.4c4.76-1,8.14-1,8.35,0,.12.57-1.91,1.89-6.33,2.81-5,.89-8.56,1.5-13,.79A60.35,60.35,0,0,1,35.91,226.13Z"/><path class="cls-1" d="M85,295.85c-.65,0-.84.29-.36.84.9,1,.95,1.38.47,2.27-1.74,3.2-7,7.88-12.06,11-.86.55-.38,1.57.68,1.09a36.11,36.11,0,0,0,9.07-6.37,1.82,1.82,0,0,1,.3.81,27.27,27.27,0,0,1-.19,5.56,12.3,12.3,0,0,0-.35,1.81c0,.92.43,1.92,1.24,1.92A1.22,1.22,0,0,0,85,313.56a54.77,54.77,0,0,0,0-8.21,2,2,0,0,0-.68-1.57,2.65,2.65,0,0,0-.35-.24,42.69,42.69,0,0,0,3.33-3.82,3.13,3.13,0,0,0,.84-1.63C88.17,297.17,86.39,295.85,85,295.85Z"/><path class="cls-1" d="M116.05,303.7c-1.09,0-1.71.27-4,.57-1.87.24-7.91.87-9.34.87a4.43,4.43,0,0,1-2.33-1c-.44-.27-.76-.08-.76.38,0,1.28,1.32,2.95,2.49,2.95a22.26,22.26,0,0,0,3-.46c1.27-.21,7-.89,9.1-.89s2.54.14,3.54.14c.84,0,1.11-.36,1.11-.76C118.86,304.32,117.16,303.7,116.05,303.7Z"/><path class="cls-1" d="M141.57,295.39c-.52,0-.71.46-.27.78a14,14,0,0,1,2,1.68c.51.57.79.79,1.19.79a.87.87,0,0,0,.9-.95C145.39,296.31,143.3,295.41,141.57,295.39Z"/><path class="cls-1" d="M137.67,303.81c-.87,0-.95.7-.33,1,3.22,1.68,3.79,3.17,4.66,3.17s1.08-.55,1.08-1.19C143.08,305.11,140.24,303.81,137.67,303.81Z"/><path class="cls-1" d="M136.18,297.47c0-.81-1.66-1.46-2.63-1.46-.57,0-1.71.49-1.71.86s.33.44,1.11.82c.49.24.65.35.74,1.24.13,1.52.1,3,.1,5.53,0,5.33-.51,7.77-.51,8.8,0,1.41.54,2.22,1.38,2.22.68,0,1.08-.49,1.08-1.76s-.21-5.6-.21-8c0-1.67.05-3.65.13-5.28A29.59,29.59,0,0,1,136.18,297.47Z"/><path class="cls-1" d="M139.43,297.63a.41.41,0,0,0-.33.73c.54.52,1.17,1.09,1.63,1.63.62.73.81,1.19,1.43,1.19a.9.9,0,0,0,.92-.95C143.08,299,141.19,297.77,139.43,297.63Z"/><path class="cls-1" d="M168.28,301.1c-.54,0-1.11.27-1.11.6s.43.51.76.81.4.51.21,1c-1.68,4.47-5.41,7.74-9.94,9.86-.73.35-.4,1.27.33,1.08a18.26,18.26,0,0,0,11.26-9.67c.46-.95.82-1.27.82-1.76C170.61,302.24,169.25,301.1,168.28,301.1Z"/><path class="cls-1" d="M159.64,307.52a1,1,0,0,0,1-1.11c0-1.36-1.51-2.63-2.57-3.2-.7-.38-1.19.11-.81.79s.86,1.76,1.16,2.46S159.1,307.52,159.64,307.52Z"/><path class="cls-1" d="M161.43,302.4c.35.65.86,1.68,1.16,2.38s.68,1.06,1.22,1.06,1-.46,1-1.14c0-1.33-1.49-2.54-2.54-3.11C161.56,301.24,161.07,301.72,161.43,302.4Z"/><path class="cls-1" d="M192.12,303.73c-.87,0-1,.7-.33,1,3.23,1.68,3.79,3.17,4.66,3.17s1.08-.55,1.08-1.2C197.53,305,194.69,303.73,192.12,303.73Z"/><path class="cls-1" d="M190.63,297.39c0-.81-1.65-1.46-2.63-1.46-.57,0-1.71.48-1.71.86s.33.44,1.11.82c.49.24.65.35.74,1.24.13,1.52.1,2.95.1,5.53,0,5.33-.51,7.77-.51,8.8,0,1.41.54,2.22,1.38,2.22.68,0,1.08-.49,1.08-1.76s-.21-5.61-.21-8c0-1.68.05-3.65.13-5.28A29.59,29.59,0,0,1,190.63,297.39Z"/><path class="cls-1" d="M223.54,299.66c-.65,0-.84.41-1.9.55-.78.1-2,.21-3,.32.08-.89.19-1.79.24-2.19a12.45,12.45,0,0,0,.28-2c-.06-.87-1.71-1.3-2.63-1.3-.76,0-1.49.29-1.49.65s.43.48.89.7.84.46.92,1.11a26.77,26.77,0,0,1,.06,3.22c-1.41.14-2.95.25-4.55.3l-.11-.11a5.22,5.22,0,0,0-2.33-1.08c-.73-.16-1,.22-.51.79.81,1,1.38,1.4,1.62,2.65a23.09,23.09,0,0,1,.05,4.12c.09,1,.68,1.7,1.33,1.68s.76-.49.81-1.06a27.93,27.93,0,0,0-.24-5c0-.38-.11-.68-.16-.92a3.62,3.62,0,0,0,1.57.59c.54,0,2.33-.43,3.6-.59,1.79-.22,3.68-.44,4.55-.49s.81,0,.62.7a18.41,18.41,0,0,1-10,11.7c-.82.41-.38,1.33.46,1,6.47-2.3,9.64-6.93,11.51-11.48.4-1,1.19-1.06,1.19-1.71S224.73,299.66,223.54,299.66Z"/><path class="cls-1" d="M251,309.28c-.57,0-1.54.08-3.58.27-.54.05-1.24.14-2,.24l0-.1a12.21,12.21,0,0,0,.82-2.58,1.41,1.41,0,0,0-.36-1.35,2.57,2.57,0,0,0-.59-.46c1.81-.27,3.55-.6,4.14-.73s1-.46,1-.92-.86-1-1.87-1c-.67,0-1.62.52-2.81.79a28.81,28.81,0,0,1-4.42.57,5.65,5.65,0,0,1-2.06-.44c-.46-.16-.78.14-.65.65a2.38,2.38,0,0,0,2.39,1.49,24.26,24.26,0,0,0,2.46-.19,2.29,2.29,0,0,1,.62,1.57,16.63,16.63,0,0,1-.35,2.66.59.59,0,0,0,0,.21c-2.19.3-4.41.6-4.9.6a6.65,6.65,0,0,1-1.68-.3c-.56-.19-.86.11-.67.71a2.17,2.17,0,0,0,1.95,1.59,8.45,8.45,0,0,0,2.14-.43,32,32,0,0,1,7.12-1,41.8,41.8,0,0,1,4.77.32.77.77,0,0,0,.84-.84C253.37,309.93,252.2,309.28,251,309.28Z"/><path class="cls-1" d="M278.89,296a.41.41,0,0,0-.33.74,22.51,22.51,0,0,1,1.62,1.62c.63.73.82,1.19,1.44,1.19a.9.9,0,0,0,.92-.95C282.54,297.28,280.65,296.09,278.89,296Z"/><path class="cls-1" d="M277.15,298.72c-.59,0-.76.35-2,.51-2.31.33-7.37,1-8.67,1a4.11,4.11,0,0,1-2.06-.79c-.59-.32-1-.08-.84.6a3.55,3.55,0,0,0,2.68,2.57,13.24,13.24,0,0,0,2.82-.68,72.81,72.81,0,0,1,7.2-1.3c.74-.05.84,0,.63.71-1.33,4.47-5.55,9.18-11.78,12.05-.9.41-.49,1.38.4,1.11A20.51,20.51,0,0,0,278.64,303c.57-1.25,1.41-1.25,1.41-2.06S278.34,298.72,277.15,298.72Z"/><path class="cls-1" d="M281,293.71c-.51,0-.7.46-.27.78a13.56,13.56,0,0,1,2,1.68c.51.57.78.79,1.19.79a.87.87,0,0,0,.89-.95C284.84,294.63,282.76,293.73,281,293.71Z"/><path class="cls-1" d="M157.42,264.74c-.21,0-.43.22-.64.22l-.85.45a21.68,21.68,0,0,1-11.25,2.89c-8.49,0-15.92-5.12-15.92-15.13,0-6,3-10.69,7.85-10.69,3,.89,4,5.34,4,8.24,0,6.9-6.8,9.57-6.8,10,0,.88.85,1.11,1.7,1.11,8.49,0,15.71-5.79,15.71-13.81,0-5.34-2.33-9.34-7.64-9.34a11.49,11.49,0,0,0-5.94,1.78,11.2,11.2,0,0,0-3.61-.67c-8.28,0-14.65,9.57-14.65,18.7,0,12.24,8.07,21.37,19.74,21.37,7,0,18.89-4.23,18.89-13.36C158.05,265.86,157.84,264.74,157.42,264.74Z"/><path class="cls-1" d="M178.77,262.75c-5.1,0-7.64,3.78-7.64,8.46,0,5.12,2.54,8.24,7.21,8.24,4.89,0,7.86-3.12,7.86-8C186.2,267,183.65,262.75,178.77,262.75Z"/><path class="cls-1" d="M251.13,236.38c0-1.78-.79-3.06-3.18-3.06a3.27,3.27,0,0,0-2.38,1c-3,2.55-8.55,27.58-9.94,31.41l-10.74-30.39c-.4-1.27-1.59-1.53-3.18-1.53h-2.19c-3.18,0-6.75.77-7,4.09A9.53,9.53,0,0,0,213,241c1.2,2.81,2.59,7.15,3.78,10.21-1.39.77-3.78,6.13-6.56,13.54,0,.25-.4-.77-11.53-29.37-.2-.76-1.59-1-3.18-1-3.18,0-8.15,1.28-8.35,3.32,0,1.79,10.74,32.43,14.12,40.6.79,1.79,1.59,2.55,2.38,2.55s1.59-.76,2.39-2L218.53,256c.6,1.54,6.56,17.37,8.75,21.71.79,1.53,1.59,2.55,2.38,2.55a2.19,2.19,0,0,0,1.79-1c7-8.94,18.49-38.3,18.49-38.3A13,13,0,0,0,251.13,236.38Z"/><path class="cls-1" d="M290.93,264.75c-.21,0-.43.22-.64.22l-.85.45a21.68,21.68,0,0,1-11.25,2.89c-8.49,0-15.92-5.12-15.92-15.13,0-6,3-10.69,7.86-10.69,3,.89,4,5.34,4,8.24,0,6.9-6.79,9.57-6.79,10,0,.89.85,1.12,1.69,1.12,8.49,0,15.71-5.79,15.71-13.81,0-5.34-2.33-9.35-7.64-9.35a11.53,11.53,0,0,0-5.94,1.79,11.2,11.2,0,0,0-3.61-.67c-8.28,0-14.65,9.57-14.65,18.7,0,12.24,8.07,21.37,19.74,21.37,7,0,18.9-4.23,18.9-13.36C291.57,265.87,291.35,264.75,290.93,264.75Z"/><path class="cls-1" d="M331.83,236.89c-10,0-18.26,9.89-24.84,20.45,1.48-35.63,4-49,5.94-82.68,0-4.18-2.76-8.36-6.79-8.36-7.43,0-8.7,5.5-8.7,12.09,0,25.29,1.7,50.36,3,75.43,0,5.28.21,10.55.21,15.83v3.52c0,.66,0,4.18,1.49,4.18.63,0,1.91-.88,1.91-1.54A43.84,43.84,0,0,1,307.84,262c3.18,6.38,2.33,15.4,9.55,15.4,13.59,0,26.11-10.34,26.11-25.07C343.5,243.26,340.53,236.89,331.83,236.89ZM317.6,264.37a13.37,13.37,0,0,1-9.13-3.52c4.25-7.47,10.41-17.59,17.84-17.59,3.61,0,4.88,3.3,4.88,6.82A13.82,13.82,0,0,1,317.6,264.37Z"/><path class="cls-1" d="M181.3,198A100,100,0,1,0,63.54,119.76,100.07,100.07,0,0,0,181.3,198ZM176,179.82c-5.24-2.33-6.54-8.35-3.76-14.62,8.22-18.5,24.13-15.18,38.53-9C201.92,172,186.18,184.33,176,179.82Zm15.7-153.37c17.9,2.64,35.07,12.9,34.51,24-.29,5.74-5.45,9.11-12.3,8.76C193.73,58.16,191.12,42.13,191.74,26.45Zm-6.49-.52c.08,21.84,6.07,52.6,28.34,53.74,10.79.55,19.07-10.14,19.82-24.85a41.8,41.8,0,0,0-1.21-12.23,90.91,90.91,0,0,1,1.92,112.25c7.94-21.7-4.31-42.17-27.61-52.52a54.47,54.47,0,0,0-29.77-4.64C164.86,90,151.72,80.27,153,55.12,154.12,33.34,169.47,25.31,185.25,25.93Zm-17.4,73.7a62.39,62.39,0,0,0-9,3.61,76.18,76.18,0,0,0,3.38-8.11A72.24,72.24,0,0,0,167.85,99.63ZM143.49,10.71A91.05,91.05,0,0,1,165.87,9c-13.62,6.78-21.94,22-22.9,40.81C142,68,148.75,80.9,157,90c-4.48,13.32-10.76,28.26-35.25,33.21-21.37,4.31-32.95-8.57-36.27-24,21.14-5.5,49.46-18.92,45.05-40.78-2.14-10.59-14.55-16-29-13a42.43,42.43,0,0,0-18.93,9.23A90.86,90.86,0,0,1,143.49,10.71ZM84.37,92.79c-1.88-18,3.81-37.17,14.69-39.37,5.62-1.14,10.17,3,11.53,9.75C114.59,83,99.71,89.51,84.37,92.79Zm34.72,41.46c14.68-3,24.65-10.08,31.5-18.23,11.25-8.13,24.94-16.21,47.37-6.24,19.93,8.86,21.91,26.07,15.67,40.57-20.41-7.76-51.27-13.21-60.33,7.16-4.38,9.88,2.62,21.44,16.08,27.42a41.44,41.44,0,0,0,13.83,3.46c-1.21.3-2.43.58-3.67.83A91.16,91.16,0,0,1,72.93,121C82.73,133.41,100,138.11,119.09,134.25Z"/></g></g></svg>